<?xml version="1.0" standalone="no"?><!DOCTYPE svg PUBLIC "-//W3C//DTD SVG 1.1//EN" "http://www.w3.org/Graphics/SVG/1.1/DTD/svg11.dtd"><svg t="1730185388854" class="icon" viewBox="0 0 1024 1024" version="1.1" xmlns="http://www.w3.org/2000/svg" p-id="4727" xmlns:xlink="http://www.w3.org/1999/xlink" width="200" height="200"><path d="M931 736.875H799V604c0-16.5-13.5-30-30-30s-30 13.5-30 30v132.875H607c-16.5 0-30 13.5-30 30s13.5 30 30 30h132V928c0 16.5 13.5 30 30 30s30-13.5 30-30V796.875h132c16.5 0 30-13.5 30-30s-13.5-30-30-30z" fill="#ffffff" p-id="4728"></path><path d="M901 207H462.646L342.233 69H125c-33 0-60 25.457-60 56.571V905c0 33.137 26.863 60 60 60h422c16.5 0 30-13.5 30-30s-13.5-30-30-30H125V129h190.104L435 267h466v277c0 16.5 13.5 30 30 30s30-13.5 30-30V267c0-33-27-60-60-60z" fill="#ffffff" p-id="4729"></path></svg>