<?xml version="1.0" standalone="no"?><!DOCTYPE svg PUBLIC "-//W3C//DTD SVG 1.1//EN" "http://www.w3.org/Graphics/SVG/1.1/DTD/svg11.dtd"><svg t="1730185303220" class="icon" viewBox="0 0 1024 1024" version="1.1" xmlns="http://www.w3.org/2000/svg" p-id="3590" xmlns:xlink="http://www.w3.org/1999/xlink" width="200" height="200"><path d="M862.155574 767.997312h-146.687486v-155.954654a35.839875 35.839875 0 0 0-9.881566-25.497511 31.692689 31.692689 0 0 0-23.961516-10.495963 31.692689 31.692689 0 0 0-24.012716 10.495963 35.839875 35.839875 0 0 0-9.881565 25.497511v156.005854H508.569612a31.692689 31.692689 0 0 0-23.961516 10.495963 35.839875 35.839875 0 0 0-9.881566 25.497511 35.839875 35.839875 0 0 0 9.881566 25.497511 31.692689 31.692689 0 0 0 23.961516 10.495963h139.161113v147.967482a35.839875 35.839875 0 0 0 9.881565 25.497511 31.692689 31.692689 0 0 0 24.012716 10.495963c9.369567 0 17.407939-3.481588 23.961516-10.495963a35.839875 35.839875 0 0 0 9.881566-25.497511v-147.967482h146.687486c9.420767 0 17.407939-3.532788 23.961517-10.495963a35.839875 35.839875 0 0 0 9.881565-25.497511 35.839875 35.839875 0 0 0-9.881565-25.497511 31.692689 31.692689 0 0 0-23.961517-10.495963z m26.419108-510.615813L682.495403 24.627114l-22.527921-24.524714H193.537115c-8.70397 0-18.431935-0.511998-26.931106 0.870397A42.342252 42.342252 0 0 0 140.391701 15.359946c-14.38715 16.281543-12.287957 36.710272-12.287957 56.729402v879.86892c0 20.01913-2.303992 41.676654 12.287957 56.831801 14.591949 15.155147 24.371115 15.155147 43.161449 15.155147H440.832249c9.420767 0 17.407939-3.481588 24.012716-10.495963a35.839875 35.839875 0 0 0 9.881565-25.497511 35.839875 35.839875 0 0 0-9.881565-25.497511 31.692689 31.692689 0 0 0-24.012716-10.495963H196.865103L196.557904 69.836556h372.478696v183.960956c0 20.01913 7.782373 38.041467 20.01913 50.995021 12.287957 12.953555 29.183898 20.991927 47.974232 20.991927h191.231331v214.27125a35.839875 35.839875 0 0 0 9.881565 25.497511 31.692689 31.692689 0 0 0 23.961517 10.495963c9.420767 0 17.407939-3.532788 24.012716-10.495963a35.839875 35.839875 0 0 0 9.830365-25.497511V280.319019l0.0512-14.28475-7.423974-8.65277z m-247.653533-8.806369c-2.099193-2.713591-3.379188-7.475174-3.839987-14.33595V77.823728l156.620252 175.973784H653.311505c-6.143978-0.819197-10.239964-2.559991-12.390356-5.273582z" fill="#ffffff" p-id="3591"></path></svg>