<?xml version="1.0" standalone="no"?><!DOCTYPE svg PUBLIC "-//W3C//DTD SVG 1.1//EN" "http://www.w3.org/Graphics/SVG/1.1/DTD/svg11.dtd"><svg t="1730187003042" class="icon" viewBox="0 0 1024 1024" version="1.1" xmlns="http://www.w3.org/2000/svg" p-id="7840" xmlns:xlink="http://www.w3.org/1999/xlink" width="200" height="200"><path d="M338.285714 137.142857H329.142857a9.142857 9.142857 0 0 0 9.142857-9.142857v9.142857h347.428572V128c0 5.046857 4.096 9.142857 9.142857 9.142857h-9.142857V219.428571H768V128a73.142857 73.142857 0 0 0-73.142857-73.142857h-365.714286a73.142857 73.142857 0 0 0-73.142857 73.142857V219.428571h82.285714V137.142857zM914.285714 219.428571H109.714286a36.571429 36.571429 0 0 0-36.571429 36.571429V292.571429c0 5.046857 4.096 9.142857 9.142857 9.142857h69.046857l28.233143 597.723428a73.142857 73.142857 0 0 0 72.996572 69.705143h518.875428a73.069714 73.069714 0 0 0 72.996572-69.705143l28.233143-597.723428h69.046857A9.142857 9.142857 0 0 0 950.857143 292.571429v-36.571429a36.571429 36.571429 0 0 0-36.571429-36.571429z m-151.625143 667.428572H261.339429l-27.648-585.142857h556.617142l-27.648 585.142857z" fill="#ffffff" p-id="7841"></path></svg>